<svg xmlns="http://www.w3.org/2000/svg" viewBox="0 0 594.05 897.64"><defs><style>.cls-1{fill:#4590ee;}</style></defs><title>doctor_signature</title><g id="Layer_2" data-name="Layer 2"><g id="Layer_1-2" data-name="Layer 1"><path class="cls-1" d="M274.27,659.63c-1.28.68-2.48,1.36-3.76,2a14.6,14.6,0,0,1,1.46,3.93c-1,5.13-.09,10.51-.43,15.72v10.6c.08,3.42.17,6.84,0,10.17a6.1,6.1,0,0,0,2.48,2c0-4.53.08-9.06.08-13.59-.08-2.73-.08-5.38-.17-8.12C274,674.84,274.1,667.23,274.27,659.63Zm0,0c-1.28.68-2.48,1.36-3.76,2,.17,6.92.26,13.93.43,20.85-.09,3.33-.26,6.67-.34,9.91s-1.11,6.92.94,9.66a6.1,6.1,0,0,0,2.48,2c0-4.53.08-9.06.08-13.59-.08-2.73-.08-5.38-.17-8.12C274,674.84,274.1,667.23,274.27,659.63ZM386.46,768.4c-3.59-3-6.15-7.09-9.14-10.77-12.3-15-22.64-31.44-35.12-46.31-14-16.66-28.45-33-40.41-51.18-1.8-2.74-5.81-6.67-.94-8.12,13.5-3.84,16.74-15.21,20.25-26.06,1.88-5.64,3-9.4,10-7.35,3.42.94,5.39-1.71,6.93-4.78,3.07-6.07,4.61-12.56,6.58-19.14,1.36-4.87-2.91-10.94,3-14.7h.59c7.69.51,8.55-.94,8.21-12.48-3.34.26-5.56-2-8.29-3.33-9.57-4.53-11.45-3.33-12.22,7.44-.68,8.37-1.62,16.74-2.74,25.12-.25,2.13-1.28,6.15-3.75,4.87-15.64-7.61-11,6.83-13.93,12.73-4.62,9.4-6.92,20.25-16.15,27-3,1.8-4.44-1.37-6.67-2-11.62-4.62-18.71-14.19-25.72-23.76-2.13-2.9-3.33-5.81-2.39-9.48,5-20.94,6.24-42.47,7.09-63.66,2.22-50.59,4.11-101.26,6.41-151.84,2.31-49.13-.25-98.26,2-147.48,2.22-48-.43-96.21-1.63-144.23-.77-30.08.35-60.33-10-89.38-1.46-4.19-1.2-8.12-7-9.32-6.92-1.45-7,4.19-9,7.44-6,9.74-11.11,19.91-16.92,29.73-5.9,10.17-12.48,19.91-18.29,30.17-11.19,19.56-22,39.39-33,59.13-2,7.17-1.62,7.86,3.68,8,20.42-40.16,44-78.44,68.18-117.66,9.49,13.75,9.49,28.45,9.66,42.12.42,29.57,2.3,59.13,2.3,88.61-.08,96.9,1.29,193.79-3.33,290.6-2.31,48.37-4,96.73-6.66,145.09-.26,5,.08,12.39-3.93,13.67-4.62,1.54-7.69-5.38-10.77-9-11.79-14-23-28.54-36.14-41.36-4.36-1.54-8.63-2.56-12.91.17.43,1.28.52,2.91,1.37,3.76,16.24,16.83,29.74,36,45,53.58,10.85,12.39,14.95,25.63,14,42.63-1.89,34.87-3.17,70.16,12.81,103.05,2,4.1,2.39,7.18-3.16,9.4-7.86,3-15.21,7.86-22.9,10.85-32.9,13-60.92,33.84-89.38,53.92-28,19.82-55.45,40.33-86.64,55-22,10.25-34.86,8.2-47.34-8.2-4.1-2.65-5.21-6.84-6.49-11.2-2.39-8.46-.17-16.92-.86-25.29-.17-2.14,1.2-5.55-1.53-6.32H9.13c-.08-.09-.26-.09-.43-.09a1.32,1.32,0,0,0-.59-.08c-3.34-.09-5.39,3.07-5.3,6.4.17,7.44-1.2,15,.85,22.31.52,10.68,4.28,20.25,9.06,29.73,3.42,7,8.29,10.26,15.55,10.85a15.53,15.53,0,0,1,11.79-4.1c6.24.26,12.73.17,19-1.71,2.22-.17,4.53.09,6.32-1.79,2.65-3.33,6.67-3.16,10.17-4.19,4,.09,6.33-3.25,9.66-4.44,3.16-6.07,9.23-7.95,14.87-10.25,4.27-4.45,9.82-6.5,15.46-8.64a29.19,29.19,0,0,0,10.68-7.34c10-10.17,24.27-15.3,32.47-27.77,15.55,1.62,19.4-15.38,32.3-20.08,12.39-4.45,24.52-12.56,36.06-20.34,11.11-7.43,25-8.8,35.72-17.52,2.65-2.13,11.19-4.7,15.72,1.37S288.8,781.22,294,786.6c2.39,2.65,4.44,5.9,8.2,3.59,3.59-2.22,5.56-6,4-10.51-1.11-3.5-1.71-7.18-4.7-9.91-2.31-2.14-4.36-4.7-.68-7.61,1.45-.77,1.79-3.84,4.35-2.22,10.26-.68,20.08,3.33,30.34,2,2.73-2,3.24,1.37,4.87,2.14,3.24,1,6.75-2.82,9.74.25,7.43,7.61,18.28,9.83,26.32,16.58,3.59,3,7.77,5.13,11.45.6C391.76,777,391.51,772.67,386.46,768.4Zm-65.7-19.74c-7.18-1.88-14.19,1.2-21.2,2.05-11.87,1.63-18.11-2.82-19.82-14.52-.51-3.59-1.37-7.86-5.21-9.4-4.53-1.88-4.44-5.39-4.62-9.15-2.56-3.76-3.41-8-3.67-12.39-.85-13.84-1.45-27.68-2.05-41.44-.17-3.93-1.2-8.46,5-9.91.43,2.65.86,5.13,1.28,7.69.17,6.92.26,13.93.43,20.85-.09,3.33-.26,6.67-.34,9.91s-1.11,6.92.94,9.66a6.1,6.1,0,0,0,2.48,2c0-4.53.08-9.06.08-13.59-.08-2.73-.08-5.38-.17-8.12.09-7.51.17-15.12.34-22.72,4.53-2.65,8.55-3.68,12,2.13C301.7,688.42,323.92,710,342,734.65c3.68,5,7,10.42,12.39,18.63C341.52,748.49,331,751.48,320.76,748.66Zm-46.49-89c-1.28.68-2.48,1.36-3.76,2,.17,6.92.26,13.93.43,20.85-.09,3.33-.26,6.67-.34,9.91s-1.11,6.92.94,9.66a6.1,6.1,0,0,0,2.48,2c0-4.53.08-9.06.08-13.59-.08-2.73-.08-5.38-.17-8.12C274,674.84,274.1,667.23,274.27,659.63Z"/><path class="cls-1" d="M586,224.87c-4.1,2.91-5.89,7.44-8.54,11.37-13.67,20.08-25.55,41.27-37.26,62.55a729.39,729.39,0,0,0-48.7,108.34c-10.34,29.4-19.14,59.22-26.83,89.38-3.68,14.18-5.81,28.71-9.91,42.64-2.57,8.28-1.12,17.94-8.38,26.4A306.49,306.49,0,0,0,423.72,510c-2.22-1.37-4.27-2.82-6.41-4.27s-5.55-2.91-5.55,2.3a30.49,30.49,0,0,0,1.11,3.85c8.71,20.42,19.48,40.07,24.95,61.86,2.05,8.55,4.18,16.58,1.62,25.81a313.42,313.42,0,0,0-7.6,34.43c-3.25,20.34-8.29,40.42-11.8,60.75-1.79,10.26-3.16,20.85,3,30.59,4.69,7.52,9.14,8,13.5.26,4.44-8,7.77-16.49,11.36-24.86,11.88-28,12.56-57,9.57-86.73-1-10.26-5.55-19.91-3-30.93,12-51.7,21.87-103.91,38.36-154.58a854.15,854.15,0,0,1,62.47-144.06c10.42-19.4,21.61-38.19,33.06-57C589.23,225,588,224.53,586,224.87Zm-138.68,446c-1.88,8.89-2.48,18.29-7.94,26.15-1.29,1.79-1.54,5.12-4.79,4-2.22-.68-2.56-3.24-2.14-5.21,2.74-14.61,1.54-29.65,6.5-44.18,3.67-10.93,2.31-23.41,9.4-34.35C453.28,635.62,451.06,653.39,447.3,670.82Z"/><path class="cls-1" d="M347.57,580c9.41.43,4.79-9.08,8.83-12.45,0-6.4.12-12.79.11-19.19,0-3.35-.87-7.18,2.85-9,3.15-1.53,5.6.5,8,2.69,2.18,2,5,3.28,7.49,4.89,1.38,2,2.73,2.17,4.06,0,5.26-20.27.47-39.51-5.48-58.81-7.21-23.38-18.27-45.08-28-67.35-7.3-16.64-16.57-32.2-24.71-48.37-.88-1.74-.75-4-1.43-5.84-1-2.72-1.7-5.32,1.19-7.23,3.54-2.34,5.76.47,7.9,2.48,7.82,7.37,11.89,17.31,17.54,26.16,6.3,9.85,12.26,19.93,18.36,29.92,3.92,5,4.47,10.27,2.21,16.41s1.6,12.19,2.45,18.31c9,14.08,13.47,29.92,17.38,45.91a218.34,218.34,0,0,1,5.9,39.43c.41,6.89-.45,12.86-3.51,18.52-1.85,3.41-3.31,8.07-10,4.47-3.53-1.9-11-1.63-10.18,7.12.19,1.89-1,3.92-1.56,5.87C362.74,587.38,359.74,588.32,347.57,580Z"/><path class="cls-1" d="M184.19,126.71c.33,3.07-1.47,7.12,3.66,8C169.28,172,150.21,209,133.29,247.2,116.69,284.65,103,323.25,86,360.48c-5.75-.52-2.74-4.34-2.65-7.06C96,315.88,112,279.7,128.36,243.65c16.79-36.94,32.75-74.26,52.89-109.58C182.55,131.78,181.53,128.5,184.19,126.71Z"/><path class="cls-1" d="M18.12,870.9c-9-2.54-12.58-10.52-9.58-23.59,1.38-6,1.36-11.76.6-19.79-8.89,9.87-4,20.09-5.5,29.13-.48-.88-1.34-1.75-1.38-2.66C1.41,834.7-.65,815.34.2,796.11c1-21.59,1.46-43.36,5.9-64.69,1.29-2.73,3.48-4.18,6.31-2.93,3.58,1.58,2.72,4.63,1.67,7.51l-2.52,34.44c-3.46,6.12,1.35,12.89-1.53,19,3.6,19-.26,38.23,2.46,57.3C13.67,855.08,16.24,862.87,18.12,870.9Z"/><path class="cls-1" d="M368.9,452.54c-5-7.13-8.86-15-3.58-23.1,3.26-5-3.62-7.59-1.08-11.62,7.89,7,12.87,16.3,18.58,24.86C397.39,464.53,412,486.43,423.7,510c-2.79,0-6.57,3.31-7.36-3-.25-2-3.3-.81-4.62,1l-4.23-6.15c.58-1.54,1.87-2.89,1.45-4.7-.37-1.62-.73-3.91-2.12-4.29s-1.55,2.65-3.37,3c-4.73-3.86-6.67-9.73-10.33-14.37-.86-1.34.25-3.48-1.75-4.36-5.6-8.27-11.08-16.64-16.92-24.74C373.26,450.74,370.44,443.85,368.9,452.54Z"/><path class="cls-1" d="M14.08,736c.06-6.28-2.52-7.94-8-4.58C4.72,714,9.34,697.13,11.64,680.06c3.35-1.52,5.84,0,8.1,2.3A84.6,84.6,0,0,0,17.9,704.8C13.54,714.82,18.25,726,14.08,736Z"/><path class="cls-1" d="M19.74,682.36c-3,.2-5.58-.89-8.09-2.3-1.37-12.95,3.31-25.34,3.53-38.16.06-3.21,1.79-6.17,5.45-6.27,4.86-.14,3.55,3.77,3.76,6.63.51,6.94-1.49,13.3-4.31,19.5a9.45,9.45,0,0,0-3.42,7.81c.22,3.13,1.67,5.8,3.14,8.46Z"/><path class="cls-1" d="M83.86,367.08c-4.66,14.57-11,28.66-12.7,44.08q-3.12,6.3-6.23,12.6c-1.85.36-2.92,0-2-2.16,4.42-20.33,8.9-40.64,18.26-59.44C85.38,362,84.73,364.49,83.86,367.08Z"/><path class="cls-1" d="M28.29,897.23c.29-5.74,1.09-9.17,8.92-6.92,6.81,2,14.49.86,21.79,1.12C49.23,895.84,39.18,898.76,28.29,897.23Z"/><path class="cls-1" d="M26.56,620.84c0,2.7,0,5.41,0,8.12,0,2.25-.61,4.34-3.43,3.28-1.76-.66-5.49,1.27-5-3s-1.52-8.8,1.25-12.86C23.63,614.92,23.86,619.86,26.56,620.84Z"/><path class="cls-1" d="M403.45,495.86c2.63-1.62-2.16-5.66,1.46-6.14,5.86-.78,6.61,5.39,8.07,8.68,1.6,3.61-3.05,3.05-5.49,3.46C404.93,500.67,403.24,498.9,403.45,495.86Z"/><path class="cls-1" d="M46.43,499.68c.47,5.58-3.42,10.68-1.79,16.38-1.38.46-4,2.21-3.9,0,.35-6.79-1.94-13.91,1.88-20.38C44.46,496.44,45.12,498.37,46.43,499.68Z"/><path class="cls-1" d="M30.34,577.85c2.16,3.07,2.33,6.54,2,10.11-6.12-2.6-3.08,7.36-8.27,6,.61-6.63-1.55-14.19,6.19-18.43.65.49.88,1,.68,1.5S30.55,577.85,30.34,577.85Z"/><path class="cls-1" d="M32.37,549c-.72,2.25-3.31,4.81,1.05,6.19s1.77,3.9,1,6.13a2.54,2.54,0,0,1-2.18,2.16c-7.08,1.45-3.35-4.14-3.81-6.41A13.86,13.86,0,0,1,32,544.81l1.08.72A2.68,2.68,0,0,1,32.37,549Z"/><path class="cls-1" d="M24.08,594c2.94-1.76,1.58-9.42,8.27-6,0,.7,0,1.4,0,2.09-4.6,5.55.2,13-3.84,18.68-1.78-1-2.17-2.79-2.61-4.56a15.46,15.46,0,0,0-2.35-5.94A2.9,2.9,0,0,1,24,595.8,10.82,10.82,0,0,1,24.08,594Z"/><path class="cls-1" d="M50.92,477.3c-1.55,6.21-1.07,12.86-3.94,18.79-2-.85-1.23-3-2.08-4.43a29.83,29.83,0,0,1,3.54-16.79C50.47,474.45,51.49,475.06,50.92,477.3Z"/><path class="cls-1" d="M85.22,881c1.09-9,6.73-11.43,14.84-10.3C96.23,875.77,90.68,878.34,85.22,881Z"/><path class="cls-1" d="M40.64,524.36c0,4.16.6,8.43-2,12.16a1.9,1.9,0,0,1-2.59.38c-2.62-2.41-.2-5.81-1.64-8.45C34.49,524,34.82,520,40.64,524.36Z"/><path class="cls-1" d="M26.56,620.84c-5.18,3-4-4.15-7.15-4.44l.93-7.72c1.31-.8,2.21,0,3.11.77a10.59,10.59,0,0,0,2.83,1.79,3.92,3.92,0,0,1,1.77,1.29C28.4,615.45,28.29,618.29,26.56,620.84Z"/><path class="cls-1" d="M52.81,456.63c.94-4.33,1.88-8.66,3.41-15.79,2.86,8.31,1.25,13.21-1.15,18C53.74,458.71,53.49,457.46,52.81,456.63Z"/><path class="cls-1" d="M52.81,456.63l2.26,2.25q-.24,7-.49,14.08a8.58,8.58,0,0,0-1.58.35c-2.14-1.81-3.38-3.93-2.34-6.83A20.27,20.27,0,0,1,52.81,456.63Z"/><path class="cls-1" d="M588.33,227.43c-.79-.85-1.59-1.69-2.38-2.53l7.95-10.82C594.89,220.39,590.81,223.47,588.33,227.43Z"/><path class="cls-1" d="M14,670c-.32-4.47.72-8,6.07-8.28,0,2.74,0,5.48-.07,8.22A4.31,4.31,0,0,1,14,670Z"/><path class="cls-1" d="M34.41,528.45c3.08,2.11,1.72,5.36,2.09,8.16,1.62,4.33.32,5.77-4.09,4.16C32.36,536.55,32,532.27,34.41,528.45Z"/><path class="cls-1" d="M22.21,610.38l-1.87-1.7c.63-4.45,1.18-8.93,3.62-12.88l.24,2.43c1.9,1.52,2,3.86,2.63,5.93a4.45,4.45,0,0,1-.08,2.63C25.74,608.63,25.6,611.56,22.21,610.38Z"/><path class="cls-1" d="M14,670l6-.06-.21,8C16.71,676.21,14,674.09,14,670Z"/><path class="cls-1" d="M32.41,540.77c2.69-.08,4-1.51,4.08-4.16l2.15-.09c-.67,4.15,1.7,8.84-2.18,12.43-1.33-1.26-2.24-2.88-3.62-4.08l-.86-.06C32.12,543.46,32.26,542.12,32.41,540.77Z"/><path class="cls-1" d="M65.38,889.66c1.28-6.51,5.65-5.57,10.18-4.23A15.42,15.42,0,0,1,65.38,889.66Z"/><path class="cls-1" d="M50.66,466.48,53,473.31q-1,2-2.08,4l-2.48-2.43C49,472,48.47,468.89,50.66,466.48Z"/><path class="cls-1" d="M32.24,563.44l2.18-2.16c3.83,3.44-.09,6.81-.08,10.22a1.27,1.27,0,0,1-2.07,0Z"/><path class="cls-1" d="M300.81,762.14c.7-2.35-2.4-6.75,3.3-6.39,4,.26,1.57,2.57,1.14,4.2C304.39,761.94,302.68,762.21,300.81,762.14Z"/><path class="cls-1" d="M65,427.84c-1.59,2.84-1.27,6.62-4.73,9.25-2.12-3.66,1.39-6.34,1.13-9.31A2.49,2.49,0,0,1,65,427.84Z"/><path class="cls-1" d="M378.91,546.86c-.71,1.9,2.73,5.1-.77,5.68-3.94.65-3-3.23-3.29-5.64Z"/><path class="cls-1" d="M44.9,491.66c.7,1.48,1.39,2.95,2.08,4.43-.18,1.2-.36,2.39-.55,3.59-2.7,0-3.6-1.7-3.81-4.05Z"/><path class="cls-1" d="M83.86,367.08c-.22-2-.59-3.91-2.65-4.92.72-2.91-.83-6.36,2.11-8.73.47,2.5-.13,5.41,2.65,7.05Q84.92,363.78,83.86,367.08Z"/><path class="cls-1" d="M299.27,641.3c-3.62,4.11-4.61-.65-6.62-2Z"/><path class="cls-1" d="M65,427.84l-3.6-.06c-.33-2.28-.55-4.52,1.56-6.18l2,2.16Z"/><path class="cls-1" d="M391.37,477.13c1.47-.44,3.25-2,4.35-.06,1.4,2.46-2.4,2.51-2.6,4.42C391.32,480.53,391.26,478.86,391.37,477.13Z"/><path class="cls-1" d="M26,606.34c0-.62,0-1.25,0-1.88-.78-2.13.17-2.53,2-2,.15,2.1.31,4.19.46,6.28-.16,1.27-.33,2.53-.5,3.8H26.31C24.51,610.54,25.08,608.45,26,606.34Z"/><path class="cls-1" d="M335.5,762c.64-1.45,1.27-3.86,3-2.94,1.19.63,1.32,3.29,1.93,5Z"/><path class="cls-1" d="M32.27,571.52l2.07,0a5.78,5.78,0,0,1-4,6.35c0-.76-.05-1.52-.07-2.28Z"/><path class="cls-1" d="M207.2,546.71a18,18,0,0,1-12.92.24L178,528.47c-.83-1.11-.43-2.27-.15-3.42.42-2.78-1.58-4.24-3.28-5.83-2.17-1.49-4.86-1.65-7.13-2.86a3.09,3.09,0,0,1-1.74-.52c-3.27-.48-2.3-4.32-4.48-5.67L159.37,508a4.83,4.83,0,0,1,1.88-1.49c.87-.51,2.92-.69.52-2.12a13.36,13.36,0,0,1-4.25-1.94c-1.23-5.79,2.46-5.27,6.13-4.78A405.1,405.1,0,0,1,207.2,546.71Z"/><path class="cls-1" d="M163.65,497.62c-1.72,1.94-6.11.49-6,4.74-.17,1.78-1.35,2.52-2.92,2.84a4.4,4.4,0,0,1-4.62-2.84,7.74,7.74,0,0,1,0-3.42c-1.18.08-1.12,1.25-1.68,1.92-.92,1.05-1.94,1.78-3.4,1.13-2.81-5.17-9.67-9.14-4.71-16.65.73-1.1.7-3.65-2.08-3.34-10.11,1.12-7.4-7.67-7.23-11.57.21-5,4.88-4.52,8.11-1.11C147.75,478.38,157.47,486.48,163.65,497.62Z"/><path class="cls-1" d="M180.39,526.09,178,528.47c-4.93-2.81-7.88-7.34-10.56-12.11,2.72,1.06,6.64-5.33,8.46,1.36C176.83,520.8,180.43,522.46,180.39,526.09Z"/><path class="cls-1" d="M10,789.49c-.59-4.67.38-9.48-1.62-14-1.21-2.75.16-4.55,3.15-5C11.2,776.8,13.1,783.35,10,789.49Z"/><path class="cls-1" d="M145.08,502l2.24-2c2.34-1.59,2.85.82,4,1.83.76,2,2.57,2.05,4.26,2.33,1.77,2,1.22,3.95-.15,5.87a9.39,9.39,0,0,1-1.83.26c-1.48-.85-2.69-2.33-4.66-2Q147,505.11,145.08,502Z"/><path class="cls-1" d="M155.42,510l.15-5.87,2.08-1.78,5.85-.51c2.31,3.17.28,4.62-2.32,5.84a8.5,8.5,0,0,0-1.81.26Z"/><path class="cls-1" d="M161.19,510.17c2.72.92,3.14,3.66,4.48,5.68C155.78,520.59,164.53,510.6,161.19,510.17Z"/><path class="cls-1" d="M148.93,508.23c3.46-3.7,4.13-1,4.66,2C151,512.07,150.13,509.71,148.93,508.23Z"/><path class="cls-1" d="M32.84,544.87c5.32-2.3,3.08,2.12,3.62,4.08H32.37Z"/><path class="cls-1" d="M273.93,682.35c.09,2.74.09,5.39.17,8.12,0,4.53-.08,9.06-.08,13.59a6.1,6.1,0,0,1-2.48-2c.17-3.33.08-6.75,0-10.17v-10.6c.34-5.21-.6-10.59.43-15.72a17.25,17.25,0,0,1,2.3-5.89C274.1,667.23,274,674.84,273.93,682.35Z"/><path class="cls-1" d="M274,704.06a6.1,6.1,0,0,1-2.48-2c-2.05-2.74-.94-6.33-.94-9.66s.25-6.58.34-9.91c-.17-6.92-.26-13.93-.43-20.85a14.6,14.6,0,0,1,1.46,3.93c1.53,5.56.85,11.2.51,16.83a1.82,1.82,0,0,0-.09.69v.08c-.17,2.4-.08,4.87-.08,7.27v1.36C272.65,695.86,271.28,700.21,274,704.06Z"/><path class="cls-1" d="M274.27,659.63c-.17,7.6-.25,15.21-.34,22.72a1.68,1.68,0,0,1-1.54.77,1.63,1.63,0,0,1-.85-.25,2.8,2.8,0,0,1-.6-.43c-.17-6.92-.26-13.93-.43-20.85C271.79,661,273,660.31,274.27,659.63Z"/><path class="cls-1" d="M364.42,759.61c-3.75-1.76-7.52-.52-9.86-4.92C358.89,753.73,362.56,752.75,364.42,759.61Z"/><path class="cls-1" d="M269.11,641c0,2-.52,3.67-2,3.53-.85-.07-2-1.77-2.2-2.89-.3-1.66.41-3.59,2.44-3.42C268.1,638.23,268.7,640.25,269.11,641Z"/><path class="cls-1" d="M28.09,602.45l-2,2c-2.19-1.6-2-3.93-1.87-6.23C27,598.3,28.28,599.68,28.09,602.45Z"/><path class="cls-1" d="M26,606.34l.27,6.19c-3.38,3.15-3.8.63-4.09-2.15Q24.13,608.37,26,606.34Z"/><path class="cls-1" d="M180.39,526.09c-1.53-2.78-5.26-4.36-4.52-8.37C178.16,520.09,183.33,520.9,180.39,526.09Z"/><path class="cls-1" d="M161.18,507.69c1.71-1.58,2.91-3.35,2.32-5.84,1.87,1,3.27,2.8,2.67,4.71C165.4,509.06,163,507.73,161.18,507.69Z"/><path class="cls-1" d="M151.31,501.81l-4-1.83c0-3.39,2.33-5.31,4.89-4C155.78,497.76,150.12,499.54,151.31,501.81Z"/><path class="cls-1" d="M274.1,690.47c0,4.53-.08,9.06-.08,13.59a6.1,6.1,0,0,1-2.48-2c-2.05-2.74-.94-6.33-.94-9.66.34-.43.6-.94.94-1.36.25-.26.43-.52.77-.6A1.7,1.7,0,0,1,274.1,690.47Z"/><path class="cls-1" d="M274.1,690.47c-.6.34-1.19.6-1.79.94a4,4,0,0,1-.77.43c-.34.17-.6.34-.94.51.08-3.24.25-6.58.34-9.91h.6a3.33,3.33,0,0,0,.94-.09,7.8,7.8,0,0,0,1.45,0C274,685.09,274,687.74,274.1,690.47Z"/></g></g></svg>
