<svg xmlns="http://www.w3.org/2000/svg" viewBox="0 0 13.87 10.4"><defs><style>.cls-1{fill:#009432;}</style></defs><title>Asset 3</title><g id="Layer_2" data-name="Layer 2"><g id="Layer_2-2" data-name="Layer 2"><path class="cls-1" d="M12.57,0H1.3A1.3,1.3,0,0,0,0,1.3V9.1a1.3,1.3,0,0,0,1.3,1.3H12.57a1.3,1.3,0,0,0,1.3-1.3V1.3A1.3,1.3,0,0,0,12.57,0Zm0,.87a.41.41,0,0,1,.16,0l-5.8,5L1.13.9a.51.51,0,0,1,.17,0Zm0,8.66H1.3A.43.43,0,0,1,.87,9.1V1.82l5.78,5a.42.42,0,0,0,.28.1.45.45,0,0,0,.29-.1l5.78-5V9.1A.43.43,0,0,1,12.57,9.53Z"/></g></g></svg>