<svg xmlns="http://www.w3.org/2000/svg" viewBox="0 0 446.57 258.25"><defs><style>.cls-1{font-size:34.02px;font-family:CerebriSans-Book, Cerebri Sans;letter-spacing:-0.01em;}.cls-1,.cls-5{fill:#303030;}.cls-2{letter-spacing:0.02em;}.cls-3{letter-spacing:-0.01em;}.cls-4{fill:#188737;}.cls-6{fill:none;stroke:#e72027;stroke-linecap:round;stroke-linejoin:round;stroke-width:2.83px;}</style></defs><title>healthfirstecg</title><g id="Layer_2" data-name="Layer 2"><g id="Layer_1-2" data-name="Layer 1"><text class="cls-1" transform="translate(53.07 248.93)">hea<tspan class="cls-2" x="55.2" y="0">r</tspan><tspan class="cls-3" x="67.43" y="0">t needs healthfirst</tspan></text><g id="Healthfirst_ECG" data-name="Healthfirst ECG"><path class="cls-4" d="M12.28,167.06H30V148.82H42.28v47.24H30V176.61H12.28v19.45H0V148.82H12.28Z"/><path class="cls-4" d="M85.19,182.08H61.32q.09,7.23,6.92,7.23a5.66,5.66,0,0,0,5.57-3.05H84.74A14.84,14.84,0,0,1,81.87,192a13.56,13.56,0,0,1-5.78,4,22.1,22.1,0,0,1-7.85,1.39q-8.86,0-13.91-5.19a16.38,16.38,0,0,1-4.47-11.91,18.76,18.76,0,0,1,2.42-9.44q4.39-7.76,15.44-7.75,7.61,0,12.11,4A14.87,14.87,0,0,1,84,173.18,27,27,0,0,1,85.19,182.08ZM74.64,175.5a6.56,6.56,0,0,0-2.34-3.75A6.72,6.72,0,0,0,68,170.38a6.58,6.58,0,0,0-4.27,1.35,6.07,6.07,0,0,0-2.13,3.77Z"/><path class="cls-4" d="M116.68,164H128v32.11H116.68v-3.57a12,12,0,0,1-9.9,4.61,15.88,15.88,0,0,1-7.75-2,16.18,16.18,0,0,1-6.29-6.26,17.69,17.69,0,0,1-2.18-8.86q0-8.19,5.7-13.11a15.5,15.5,0,0,1,10.42-3.91,14.06,14.06,0,0,1,5.5,1,13.78,13.78,0,0,1,4.5,3.18Zm-7,8.75a7.07,7.07,0,0,0-5.19,2.15,6.91,6.91,0,0,0-2.15,5.05,7.25,7.25,0,0,0,2.15,5.26A7.34,7.34,0,0,0,117,180a6.88,6.88,0,0,0-2.15-5.15A7.24,7.24,0,0,0,109.69,172.7Z"/><path class="cls-4" d="M147.13,144.08v52H135.78v-52Z"/><path class="cls-4" d="M167.55,173.39v22.67H156.2V173.39h-3.74V164h3.74v-9.66h11.35V164H174v9.44Z"/><path class="cls-4" d="M179.21,144.08h11.35V168a14.36,14.36,0,0,1,3.63-3.21,13.2,13.2,0,0,1,6.64-1.56q5.85,0,9.28,3.53a9.35,9.35,0,0,1,2.59,4.53,20.21,20.21,0,0,1,.38,4.33v20.45H201.73V179.79a12.5,12.5,0,0,0-.69-5,4,4,0,0,0-1.81-1.81,5.71,5.71,0,0,0-2.72-.68,5.81,5.81,0,0,0-4.74,2.15,6.94,6.94,0,0,0-1.21,4.46v17.2H179.21Z"/><path class="cls-4" d="M249,159.21H234.19v7.88h13.46v10.39H234.19v18.58H221.91V148.82H249Z"/><rect class="cls-4" x="255.16" y="163.95" width="11.35" height="32.11"/><path class="cls-4" d="M274.3,164h11.35v5.26a11.16,11.16,0,0,1,10.55-5.71c.57,0,1.3,0,2.18.1v10.83a11,11,0,0,0-4.85-1.14c-2.63,0-4.6.75-5.91,2.27s-2,3.76-2,6.76v13.74H274.3Z"/><path class="cls-4" d="M328.45,164.88l-3.84,7.34a14.2,14.2,0,0,0-6.2-1.56,4.43,4.43,0,0,0-2.49.64,1.92,1.92,0,0,0-1,1.64,1.68,1.68,0,0,0,.95,1.58,19.71,19.71,0,0,0,4.14,1.16q9.34,1.86,9.34,9.51a10.63,10.63,0,0,1-4.7,9.24q-4.05,2.83-10.56,2.84a24.87,24.87,0,0,1-12.83-3.7l4.11-8q4.89,3.26,9,3.25a4.33,4.33,0,0,0,2.58-.71,2.15,2.15,0,0,0,1-1.82,1.93,1.93,0,0,0-.95-1.73,13.86,13.86,0,0,0-3.9-1.17,18.43,18.43,0,0,1-6.09-2.22,7.51,7.51,0,0,1-3.32-6.71,10.71,10.71,0,0,1,3.57-8.27Q311,162.8,318,162.8A27.1,27.1,0,0,1,328.45,164.88Z"/><path class="cls-4" d="M348.55,173.39v22.67H337.2V173.39h-3.73V164h3.73v-9.66h11.35V164H355v9.44Z"/><path class="cls-5" d="M391.15,147.16H379.32V166H390.8v4.54H379.32v21h11.83v4.54H374.36V142.63h16.79Z"/><path class="cls-5" d="M417.94,194.57a12.75,12.75,0,0,1-6.8,2.2c-12.54,0-14.39-16.37-14.39-25.51,0-8.65.29-29.34,14.88-29.34a11.52,11.52,0,0,1,6.31,1.7v5.46c-2-1.35-3.75-2.34-6.23-2.34-8.65,0-9.85,12.54-9.85,22.46,0,6.24,0,22.75,9.49,22.75a11.74,11.74,0,0,0,6.59-2.41Z"/><path class="cls-5" d="M434.38,167.85h12.19v9.85c0,8.44-.42,19.07-11.48,19.07-11.27,0-12.33-11.84-12.33-28.7,0-12.62,1.49-26.15,12.83-26.15,6.38,0,9.56,4.25,10.91,10.06l-4.89,1.91c-.57-3.18-1.91-7.15-5.81-7.15-7.37.07-7.94,11.48-7.94,20.9,0,19.77,2.48,24.31,7.66,24.31,5.59,0,6.09-4.11,6.09-15.52v-4h-7.23Z"/></g><g id="Heart"><polyline class="cls-6" points="225.46 80.58 249.94 80.58 252.82 61.86 258.58 92.82 271.54 40.98 288.1 108.66 294.58 58.98 301.06 81.06 321.7 81.06"/><path class="cls-5" d="M331,26.46C326.45,2.22,299.09.06,299.09.06A55.26,55.26,0,0,0,269.93,7.8s-4.56,3.06-6.78,4.68a2.87,2.87,0,0,1-3.36-.24l-1.62-1.38S243.65-1.47,224,.15,196.08,15.24,193.36,23s-5.69,16.35-2.72,35l.9,4.91a3.18,3.18,0,0,1-.54,2.54c-.7,1.35-3.51,5.6-2.39,10.46s3.92,7.61,9,12.06,12,9.09,23.27,20.34c0,0,6.69,6.6,7.05,8.1s3.78,5.34-1.86,13.56c0,0-2.63,3.09-6.4,2-3.2.54-3.29,3.56-2.8,4.06a3.06,3.06,0,0,0,3.29,1.48,2.09,2.09,0,0,0,1.8-1.62,11,11,0,0,1,2.75-2s7.15-4.32,6.75-11.75a20.46,20.46,0,0,0-.41-2.5s-.13-1.11.95-.75,4.81,2.59,9.7,1.54c0,0,5.4-1.26,8.55-4a3.62,3.62,0,0,0,2.88-4.74s-.6-1.56-3.15-1.17a3.83,3.83,0,0,0-2.07,1.74,10.85,10.85,0,0,1-3.54,4.35c-2.19,1.29-4.65,2.76-9.63,1s-7.5-8.46-7.77-8.79-8.7-21.21-11.13-27.6-2.43-6.66-2.43-6.66-3.15-11.61-13.5-12.6c0,0-3.69,1.89-4.5-2.61l-.81-4.5S186.77-7.62,241,7c0,0,10.2,3.91,16.29,9.22a24.86,24.86,0,0,0,2.9,2,2.52,2.52,0,0,0,2.94-.05c1.78-1,21-19,43.78-11.85,20.79,7,22,29.43,22.05,32.4s6,42.12-35.9,72.27c0,0-14.77,11.43-18.91,12.33,0,0-5.41,3.75-8.56-1.56-5.13-1.71-12-.15-14.21,7.14s4.95,13.77,9.18,13a9.57,9.57,0,0,0,10.89-7,16.69,16.69,0,0,0,.63-4,3.4,3.4,0,0,1,2.22-2.76s26.94-11.94,43.74-35.94S335.61,50.7,331,26.46ZM199.37,66.21c7,.9,7.83,6.25,10.71,11.47s10.71,22.61,11.49,24.41a14.79,14.79,0,0,1,1.22,4.42c0,.76-2.24-1.63-2.24-1.63-4.08-2.82-16.59-17-22.84-23s-4.86-10.25-4.86-10.25C193.56,65.67,199.37,66.21,199.37,66.21Zm62.17,70.16a4.84,4.84,0,1,1,4.83-4.84A4.84,4.84,0,0,1,261.54,136.37Z"/></g></g></g></svg>