<svg xmlns="http://www.w3.org/2000/svg" viewBox="0 0 8.96 13.03"><defs><style>.cls-1{fill:#009432;}</style></defs><title>Asset 2</title><g id="Layer_2" data-name="Layer 2"><g id="Layer_2-2" data-name="Layer 2"><path class="cls-1" d="M4.48,13a.79.79,0,0,1-.68-.39h0L.56,6.71A4.53,4.53,0,0,1,.62,2.23,4.43,4.43,0,0,1,4.38,0h.2A4.43,4.43,0,0,1,8.34,2.23,4.53,4.53,0,0,1,8.4,6.71L5.17,12.63h0a.79.79,0,0,1-.68.39ZM4.48.81H4.4A3.57,3.57,0,0,0,1.33,2.64a3.69,3.69,0,0,0-.05,3.68l3.2,5.86,3.2-5.86a3.69,3.69,0,0,0,0-3.68A3.57,3.57,0,0,0,4.56.82Z"/><path class="cls-1" d="M4.48,5.9A1.83,1.83,0,1,1,6.31,4.07,1.83,1.83,0,0,1,4.48,5.9Zm0-2.85a1,1,0,1,0,1,1A1,1,0,0,0,4.48,3.05Z"/></g></g></svg>