<svg xmlns="http://www.w3.org/2000/svg" viewBox="0 0 12.81 12.81"><defs><style>.cls-1{fill:#009432;}</style></defs><title>Asset 4</title><g id="Layer_2" data-name="Layer 2"><g id="Layer_2-2" data-name="Layer 2"><path class="cls-1" d="M10.93,1.88a6.4,6.4,0,1,0,0,9.05A6.38,6.38,0,0,0,10.93,1.88ZM10.67,10a6.61,6.61,0,0,0-1-.71,10.38,10.38,0,0,0,.39-2.5H12A5.56,5.56,0,0,1,10.67,10ZM.83,6.81H2.72a10.38,10.38,0,0,0,.38,2.5,6.61,6.61,0,0,0-1,.71A5.56,5.56,0,0,1,.83,6.81Zm1.32-4a6,6,0,0,0,1,.71A10.46,10.46,0,0,0,2.72,6H.83A5.53,5.53,0,0,1,2.15,2.79ZM6,3.58A5.32,5.32,0,0,1,4.1,3.1,3.5,3.5,0,0,1,6,.88ZM6,4.4V6H3.53a10.12,10.12,0,0,1,.31-2.12A6.33,6.33,0,0,0,6,4.4ZM6,6.81v1.6a6.33,6.33,0,0,0-2.16.52,10,10,0,0,1-.31-2.12ZM6,9.23v2.71A3.55,3.55,0,0,1,4.1,9.71,5.54,5.54,0,0,1,6,9.23Zm.81,0a5.65,5.65,0,0,1,1.91.48,3.59,3.59,0,0,1-1.91,2.23Zm0-.82V6.81H9.28A9.42,9.42,0,0,1,9,8.93a6.33,6.33,0,0,0-2.16-.52ZM6.81,6V4.4A6.33,6.33,0,0,0,9,3.88,9.5,9.5,0,0,1,9.28,6Zm0-2.42V.88A3.55,3.55,0,0,1,8.72,3.1,5.43,5.43,0,0,1,6.81,3.58Zm1.84-2.3a5.38,5.38,0,0,1,1.44.93,5.34,5.34,0,0,1-.65.5A6.62,6.62,0,0,0,8.65,1.28ZM3.37,2.71a7.51,7.51,0,0,1-.65-.5,5.38,5.38,0,0,1,1.44-.93,6.62,6.62,0,0,0-.79,1.43Zm0,7.4a6.79,6.79,0,0,0,.79,1.42,5.38,5.38,0,0,1-1.44-.93A5.82,5.82,0,0,1,3.37,10.11Zm6.07,0a4.43,4.43,0,0,1,.65.49,5.38,5.38,0,0,1-1.44.93,6.79,6.79,0,0,0,.79-1.42ZM10.1,6a10.46,10.46,0,0,0-.39-2.5,6.61,6.61,0,0,0,1-.71A5.59,5.59,0,0,1,12,6Z"/></g></g></svg>