<svg xmlns="http://www.w3.org/2000/svg" viewBox="0 0 11.88 11.94"><defs><style>.cls-1{fill:#009432;fill-rule:evenodd;}</style></defs><title>Asset 5</title><g id="Layer_2" data-name="Layer 2"><g id="Layer_2-2" data-name="Layer 2"><path class="cls-1" d="M10.15,1.74A5.91,5.91,0,0,0,.05,5.92,5.85,5.85,0,0,0,.84,8.87L0,11.94l3.14-.82A5.88,5.88,0,0,0,6,11.84H6a5.92,5.92,0,0,0,5.91-5.92A5.84,5.84,0,0,0,10.15,1.74ZM6,10.84H6a4.9,4.9,0,0,1-2.5-.69l-.18-.1-1.86.48.5-1.81L1.8,8.53A4.92,4.92,0,0,1,6,1a4.92,4.92,0,0,1,4.91,4.92A4.92,4.92,0,0,1,6,10.84ZM8.66,7.15c-.14-.07-.87-.43-1-.48s-.23-.07-.33.08-.38.48-.47.58-.17.11-.32,0a4,4,0,0,1-1.19-.73,4.66,4.66,0,0,1-.82-1c-.09-.15,0-.22.07-.31A3.6,3.6,0,0,0,5,4.8a.29.29,0,0,0,0-.26l-.45-1.1c-.12-.29-.24-.25-.34-.25H3.87a.53.53,0,0,0-.39.19A1.63,1.63,0,0,0,3,4.6a2.91,2.91,0,0,0,.6,1.53A6.69,6.69,0,0,0,6.09,8.36a5.79,5.79,0,0,0,.84.31,1.91,1.91,0,0,0,.93.06,1.48,1.48,0,0,0,1-.7A1.35,1.35,0,0,0,9,7.33C8.91,7.27,8.81,7.23,8.66,7.15Z"/></g></g></svg>